<?xml version="1.0" encoding="iso-8859-1"?>
<!-- Generator: Adobe Illustrator 18.1.1, SVG Export Plug-In . SVG Version: 6.00 Build 0)  -->
<svg version="1.1" id="Capa_1" xmlns="http://www.w3.org/2000/svg" xmlns:xlink="http://www.w3.org/1999/xlink" x="0px" y="0px"
	stroke="white" fill="white" width='12' height='12' viewBox="0 0 375.633 375.633" style="enable-background:new 0 0 375.633 375.633;" xml:space="preserve">
<g>
	<path  d="M375.627,279.726l-78.877,67.608v-45.079h-13.277c-41.919,0-72.786-18.781-98.268-43.648
		c9.828-11.569,18.738-23.214,27.027-34.108c1.904-2.513,3.796-4.993,5.684-7.473c18.852,19.494,39.129,32.645,65.562,32.645h13.277
		v-37.568L375.627,279.726z M0,129.466h39.308c24.927,0,44.377,11.716,62.321,29.371c2.953-3.791,5.939-7.74,8.953-11.683
		c7.337-9.66,15.093-19.831,23.497-29.975c-24.813-23.187-54.75-40.309-94.77-40.309H0V129.466z M296.75,28.299v44.818h-13.277
		c-69.375,0-108.488,51.421-143.004,96.804c-31.046,40.749-57.85,75.989-101.161,75.989H0v52.59h39.308
		c69.386,0,108.498-51.394,143.015-96.766c31.035-40.798,57.844-76.033,101.15-76.033h13.277v37.84l78.883-67.629L296.75,28.299z"/>
</g>
<g>
</g>
<g>
</g>
<g>
</g>
<g>
</g>
<g>
</g>
<g>
</g>
<g>
</g>
<g>
</g>
<g>
</g>
<g>
</g>
<g>
</g>
<g>
</g>
<g>
</g>
<g>
</g>
<g>
</g>
</svg>
