<?xml version="1.0" encoding="iso-8859-1"?>
<!-- Generator: Adobe Illustrator 19.0.0, SVG Export Plug-In . SVG Version: 6.00 Build 0)  -->
<svg version="1.1" id="Capa_1" xmlns="http://www.w3.org/2000/svg" xmlns:xlink="http://www.w3.org/1999/xlink" x="0px" y="0px"
	fill="white" width='12' height='12' viewBox="0 0 490.055 490.055" style="enable-background:new 0 0 490.055 490.055;" xml:space="preserve">
<g>
	<g>
		<path d="M438.499,264.355c-1.2-22.4-5.8-41-14.8-39.4c-8.3,1.5-14.4,17.4-15.3,40.4c-1.7,41.3-3.6,83-3.4,124.4l0.5,50
			c0.3,5.6-1.4,10.7-3.4,13.4c-0.5,0.6-0.9,1.1-1.3,1.3c-0.2,0.2-0.3,0.2-0.3,0.3h-0.1c0,0-0.1,0.1,0,0c0.1,0,0.3-0.1,0.4-0.1
			s0.3,0,0.4,0.1s0.4,0.2,0,0.2l-1.6,0.1h-0.2h-0.1c0.5-0.1-1.1,0.2,1-0.2l0,0h-0.4h-0.8h-1.6l-6.3,0.1l-50,1.1l-12.5,0.3l-3.1,0.1
			c-0.3,0-0.6,0-0.9,0c-0.6-0.1-1.2-0.2-1.7-0.4c-1.1-0.5-2.1-1.4-2.7-2.6c-0.1-0.3-0.3-0.6-0.4-0.9c-0.2-0.6,0,0.2-0.2-0.5
			l-0.1-1.6l0,0v-0.1v-0.8l-0.1-3.1c2.9-29.9,4.6-59.9,5.6-90.1l0.6-22.6l0.1-5.7v-1.4c0-0.5,0-0.8,0-1.9c0-1.9-0.2-3.8-0.5-5.7
			c-1.2-7.6-4.9-14.7-10.2-20.2c-5.3-5.5-12.3-9.4-20-11c-2.3-0.5-5.4-0.7-5.7-0.7h-0.7h-1.7h-1.4h-5.7l-22.7-0.1l-46,0.1
			c-7.7,0.2-15.5,2.8-21.7,7.4c-6.3,4.5-11.1,10.9-13.7,18.3c-0.7,1.8-1.1,3.7-1.6,5.6c-0.2,1.2-0.4,2.4-0.5,3.6l-0.1,0.9v0.4v0.7
			l-0.1,2.4v1.4v2.8v11.4c0.1,30.3,0.1,60.6-0.5,90.8c-0.1,5.4,3.4,13.8,5.8,16.5c4.9,5.3,9-1.6,12.1-11.8
			c5.2-16.9,8.9-35.6,11.4-55.2c1.3-9.8,2.3-19.9,3-30.2c0.4-5.1,0.7-10.3,1-15.4l0.3-7.8l0.1-1.9v-1v-0.1c0,1.4,0,0.4,0,0.7l0,0
			v-0.1v-0.2v-0.5l0.1-1c0-0.2,0.1,0,0.1,0c0,0.1,0,0.1,0.1-0.1c0.5-1.6,2-2.8,3.5-3.1c-0.7-0.3,8.3,0.2,14,0.3l37.6,1.2l18.8,0.6
			l4.7,0.1h1.2h0.3h0.1c-1.7,0-0.4,0-0.8,0h0.1h0.6l1.1,0.1c-0.1,0-0.3,0.1-0.4,0.1c-0.4-0.1-0.1,0.1-0.1,0.1
			c0.1,0.1,0.1,0.1,0.2,0.1c0.1,0.1,0.2,0.2,0.3,0.3c0.2,0.2,0.3,0.6,0.3,0.8c0,0.1,0,0.2,0,0.3c0,0.3-0.1-0.4-0.1,1.8l-0.4,18.8
			c-0.5,25.1-0.9,50.3-0.9,75.5l0.1,18.9l0.1,9.4v2.1l0.1,1.2v0.6l0.1,1.3c0.1,1,0.3,1.9,0.4,2.9c0.7,3.3,1.6,6.2,3,9
			c5.3,11.4,16.7,19.5,29.1,20.9c1.5,0.2,3.1,0.2,4.6,0.3h2.5l4.7-0.1l9.5-0.3c12.5,0.4,25,0.7,37.5,1.1l14.9,0.3l3.7,0.1h1.9h0.2
			l1.6-0.1h0.5h0.9c0.1,0,2.4-0.2,4.1-0.6c0.9-0.2,1.8-0.4,2.6-0.6l2-0.6c2.6-0.9,4.9-2.1,7.2-3.4c8.6-5.4,13.7-12.7,17-19.7
			c3.3-7.1,4.9-14.4,5.2-21.7l0.1-2.7v-1.9v-3.7l0.1-7.4l0.1-14.8v-29.7C441.399,343.255,440.499,303.755,438.499,264.355z"/>
		<path d="M476.599,241.355c6.6-0.6,5-7.6,0.6-15.8c-14.6-26.9-37.6-53.6-63.3-78.2c-25-24-50.1-48-75.1-72.1
			c-12.6-12-25.2-23.9-38-35.6l-19.4-17.5l-9.7-8.7l-4.9-4.3l-2.4-2.2l-1.9-1.6l-1.3-1l-0.2-0.2c-7.1-5.7-17.5-5.6-24.4,0.7
			c-12.1,11-24.1,22.2-35.8,33.5c-8.2,6.8-16.4,13.7-24.5,20.5c-51.6,43.9-102.3,88.5-149.6,136.4c-13.5,13.6-22.3,27.6-15.1,33.5
			c6.5,5.3,20.7,0.8,35.9-11.6c5.8-4.7,11.7-9.4,17.5-14.2c-1.6,20.4-3,41-2.8,61.4c0.4,37,2.4,74,3.7,111
			c-2.9,16.6-4.6,33.3-5.6,50l-0.6,12.6l-0.2,6.3l-0.1,3.1v1.6l0.1,2.8c0.3,8.1,3.3,16.1,8.3,22.5c4.9,6.5,11.9,11.4,19.7,13.9
			c1,0.3,2,0.6,3,0.8l1.5,0.4l1.9,0.3l1.9,0.2l1.5,0.1l1.6,0.1h1.8h0.8h1.6h3.2l12.6-0.1l25.3-0.2h25.2h3.2h1.6h0.8h1.6
			c4.2-0.1,8.5-1,12.6-2.5c8.1-3.1,15-8.8,19.5-16.2c1.7-2.6,2.5-6.7,2.2-10.3c-0.1-0.9-0.2-1.7-0.3-2.6c-0.1-1-0.4-1.9-0.6-2.7
			c-0.4-2-1.2-2.2-1.7-2.6c-2.4-1.6-4.6-1.5-6.7-0.3c-1,0.4-2.1,1.8-3.3,3.2c-1.2,1.2-2.4,2.4-3.7,3.6c-4.4,3.8-9.6,5.4-13.9,5.2
			c-2.2-0.1-4-0.7-5.9-1.5c-2.7-0.8-5.4-1.5-8.1-2.1c-10.9-2.6-22.4-4-34-4.6l-20.9-1.1l-10.4-0.6h-0.7h-0.2h-0.1c0.3,0-0.8,0,0.7,0
			l0,0h-0.3l-1.3-0.1c-0.6,0-0.4-0.1-0.4-0.1c0.1,0,0.1,0,0.2,0c-0.4-0.2-0.8-0.4-1.1-0.7c-1.3-1-1.9-2.7-1.7-4
			c0-0.2,0.1-0.3,0.1-0.5l0.1-2.5l0.2-5.2l0.4-10.5c1.1-27.9,1.3-55.8-0.3-83.9l1.1-20.8c1.7-44,2.2-87.9-1.9-131.7
			c-0.5-5.4-1.7-10.3-3.6-14.1c12.4-10.4,24.7-20.9,36.7-31.7c40.3-36.5,79.7-74.2,119.3-111.4l5,5.3l13.1,13.6
			c8.8,9,17.8,17.9,26.9,26.7c18.2,17.5,36.9,34.6,55.8,51.6c37.8,33.9,76.4,67,113.3,101.6
			C465.599,239.555,473.199,241.755,476.599,241.355z"/>
	</g>
</g>
<g>
</g>
<g>
</g>
<g>
</g>
<g>
</g>
<g>
</g>
<g>
</g>
<g>
</g>
<g>
</g>
<g>
</g>
<g>
</g>
<g>
</g>
<g>
</g>
<g>
</g>
<g>
</g>
<g>
</g>
</svg>
