<?xml version="1.0" encoding="iso-8859-1"?>
<!-- Generator: Adobe Illustrator 19.0.0, SVG Export Plug-In . SVG Version: 6.00 Build 0)  -->
<svg version="1.1" id="Capa_1" xmlns="http://www.w3.org/2000/svg" xmlns:xlink="http://www.w3.org/1999/xlink" x="0px" y="0px"
	 viewBox="0 0 493 493" style="enable-background:new 0 0 493 493;" xml:space="preserve">
<g>
	<g>
		<path d="M215.6,314.05c6.8,6.6,14.7,12.4,23.5,16.4c2.1,1.2,4.4,1.9,6.7,2.8c2.2,0.9,4.5,1.7,6.9,2.2c2.4,0.6,4.5,1.3,7.1,1.7
			c2.6,0.4,5.2,0.8,7.8,1.1c2,0.2,3.3,0.2,4.9,0.3l2.4,0.1h1.2h2l9.5-0.1l19-0.3l38.1-0.9l38.1-1.1l9.5-0.3l4.8-0.1
			c1.6,0,3.7-0.2,5.5-0.4c7.5-0.4,14.8-2.2,21.9-4.4c26.3-5.2,50.8-24.7,61.6-51.4l2-5l1.5-5.2c1.1-3.3,1.8-7.3,2.4-11.2l0.4-2.9
			l0.2-2.2l0.3-4.3l0.1-1.1v-1.3v-0.3v-0.7l-0.1-2.7l-0.2-5.4c-1.2-14.5-6-28.7-13.6-41.1c-7.6-12.4-18.2-23-30.6-30.6l-4.7-2.8
			c-1.6-0.8-3.3-1.6-4.9-2.4c-3.2-1.7-6.7-2.9-10.1-4.1c-3.4-1.3-7-2-10.5-2.9c-3.7-0.8-8-1.3-11.7-1.7l-4.3-0.2l-2.2-0.1l-2.1-0.1
			h-1.1h-8.7h-17.3c-11.5-0.1-23.1-0.2-34.6-0.5c-4.1-0.1-10.5,3.4-12.6,5.8c-4,4.9,1.2,9,9,12.1c12.9,5.2,27.1,8.9,42.1,11.4
			c7.5,1.3,15.2,2.3,23,3h0.2c0.6,0-0.7,0-0.6,0l0,0l0,0h0.1l0.4,0.1l0.7,0.1l1.5,0.2l2.9,0.4c2.2,0.2,3.4,0.7,4.8,1
			c2.7,0.5,6,1.7,9,2.7c14.7,5.4,26.8,16.6,33.3,30.2c3.3,6.8,5.2,14.1,5.8,21.4c0.6,7.1-0.4,15.8-2.4,21.8
			c-4.1,13.9-13.6,26-25.8,33.5c-6.1,3.8-12.8,6.5-19.9,7.9c-1.8,0.2-3.5,0.8-5.4,0.8l-2.7,0.3c-0.9,0.1-1.7,0.2-3,0.2l-14.4,0.5
			c-9.5-0.4-19-0.7-28.5-1.1c-15.1-0.4-30.2-0.8-45.2-1l-22.6-0.2h-5.7h-2.7h-0.5l-1.4-0.1l-5.5-0.3c-1.1-0.2-2.2-0.4-3.3-0.6
			c-5-1-10.6-2.5-15.5-5c-4.9-2.5-9.6-5.6-13.8-9.3c-4.1-3.8-7.8-8.2-10.9-12.9c-3-4.9-5.3-10.1-7-15.7c-0.4-1.6-0.8-3.2-1.3-4.7
			s-0.7-3.1-1.2-4.5c-1-2.9-1.7-5.7-2.8-8.1c-2-4.8-4.6-8.4-9.2-8.7c-4.1-0.3-8.5,2.3-11.6,8.1c-1.6,2.9-2.8,6.5-3.3,10.7
			c-0.8,4.2-0.6,9,0.1,14.1C193.1,283.05,201.8,300.75,215.6,314.05z"/>
		<path d="M65.7,198.45c6.1-3.8,12.8-6.5,19.9-7.9c1.8-0.2,3.5-0.8,5.4-0.8l2.7-0.2c0.9-0.1,1.7-0.2,3-0.2l14.4-0.5
			c9.5,0.4,19,0.7,28.5,1.1c15.1,0.4,30.2,0.8,45.2,1l22.6,0.2h5.7h2.7h0.5l1.4,0.1l5.5,0.3c1.1,0.2,2.2,0.4,3.3,0.6
			c5,1,10.6,2.5,15.5,5s9.6,5.6,13.8,9.3c4.1,3.8,7.8,8.2,10.9,12.9c3,4.9,5.3,10.1,7,15.7c0.4,1.6,0.8,3.2,1.3,4.7s0.7,3.1,1.2,4.5
			c1,2.9,1.7,5.7,2.8,8.1c2,4.8,4.6,8.4,9.2,8.7c4.1,0.3,8.5-2.3,11.6-8.1c1.6-2.9,2.8-6.5,3.3-10.7c0.8-4.2,0.6-9-0.1-14.1
			c-3-18.2-11.8-36-25.6-49.2c-6.8-6.6-14.7-12.4-23.5-16.4c-2.1-1.2-4.4-1.9-6.7-2.8c-2.2-0.9-4.5-1.7-6.9-2.2
			c-2.4-0.6-4.5-1.3-7.1-1.7s-5.2-0.8-7.8-1.1c-2-0.2-3.3-0.2-5-0.3l-2.4-0.1h-1.2h-2l-9.5,0.1l-19,0.3l-38.1,0.9l-38.1,1.1
			l-9.5,0.3l-4.8,0.1c-1.6,0-3.7,0.2-5.4,0.4c-7.5,0.4-14.8,2.2-21.9,4.4c-26.3,5.2-50.8,24.7-61.6,51.4l-2,5l-1.5,5.2
			c-1.1,3.3-1.8,7.3-2.4,11.2l-0.4,2.9l-0.2,2.2l-0.3,4.3l-0.1,1.1v1.3v0.3v0.7l0.1,2.7l0.2,5.4c1.2,14.5,6,28.7,13.6,41.1
			s18.2,23,30.6,30.6l4.7,2.8c1.6,0.8,3.3,1.6,4.9,2.4c3.2,1.7,6.7,2.9,10.1,4.1c3.4,1.3,7,2,10.5,2.9c3.7,0.8,8,1.3,11.7,1.7
			l4.3,0.2l2.2,0.1l2.1,0.1h1.1h8.7h17.3c11.5,0.1,23.1,0.2,34.6,0.5c4.1,0.1,10.5-3.4,12.6-5.8c4-4.9-1.2-9-9-12.1
			c-12.9-5.2-27.1-8.9-42.1-11.4c-7.5-1.3-15.2-2.3-23-3H95c-0.6,0,0.7,0,0.6,0l0,0l0,0h-0.1l-0.4-0.1l-0.7-0.1l-1.5-0.2l-2.9-0.4
			c-2.2-0.2-3.4-0.7-4.8-1c-2.7-0.5-6-1.7-9-2.7c-14.7-5.4-26.8-16.6-33.3-30.2c-3.3-6.8-5.2-14.1-5.8-21.4
			c-0.6-7.1,0.4-15.8,2.4-21.8C44.1,218.05,53.5,206.05,65.7,198.45z"/>
	</g>
</g>
<g>
</g>
<g>
</g>
<g>
</g>
<g>
</g>
<g>
</g>
<g>
</g>
<g>
</g>
<g>
</g>
<g>
</g>
<g>
</g>
<g>
</g>
<g>
</g>
<g>
</g>
<g>
</g>
<g>
</g>
</svg>
